<svg width="164" height="37" viewBox="0 0 164 37" fill="none" xmlns="http://www.w3.org/2000/svg">
<path d="M121.232 8.74546L119.211 0.448486H121.232L121.906 3.81212C122.13 4.82121 122.242 5.8303 122.355 6.72727C122.467 5.8303 122.691 4.82121 122.916 3.81212L123.589 0.448486H125.61L126.283 3.92424C126.508 4.93333 126.62 5.8303 126.732 6.72727C126.845 5.8303 127.069 4.82121 127.181 3.81212L127.855 0.448486H129.763L127.63 8.74546H125.722L125.049 5.15758C124.936 4.37273 124.712 3.58788 124.6 2.57879C124.487 3.47576 124.263 4.26061 124.151 5.15758L123.365 8.74546H121.232Z" fill="white"/>
<path d="M133.467 5.94231C132.457 5.94231 131.671 6.16655 131.671 6.83928C131.671 7.28776 132.008 7.51201 132.457 7.51201C132.906 7.51201 133.355 7.17564 133.467 6.83928C133.467 6.72716 133.467 6.61504 133.467 6.50292V5.94231ZM135.264 7.28777C135.264 7.84837 135.264 8.40898 135.376 8.74534H133.692L133.58 8.18473C133.131 8.63322 132.569 8.96958 131.896 8.96958C130.661 8.96958 129.988 8.07261 129.988 7.17564C129.988 5.60595 131.447 4.8211 133.467 4.8211V4.59686C133.467 4.26049 133.243 3.81201 132.345 3.81201C131.784 3.81201 131.11 4.03625 130.661 4.26049L130.324 3.02716C130.773 2.80292 131.559 2.46655 132.682 2.46655C134.702 2.46655 135.264 3.69989 135.264 5.04534V7.28777Z" fill="white"/>
<path d="M138.631 0H136.723V8.74545H138.631V0Z" fill="white"/>
<path d="M144.131 5.2697C144.131 5.15758 144.131 5.04545 144.131 4.93333C144.019 4.48485 143.57 4.03636 143.009 4.03636C142.111 4.03636 141.662 4.82121 141.662 5.71818C141.662 6.72727 142.111 7.4 142.897 7.4C143.458 7.4 143.907 7.06364 144.019 6.50303C144.019 6.39091 144.019 6.16667 144.019 6.05455V5.2697H144.131ZM146.04 0V6.95152C146.04 7.62424 146.04 8.29697 146.04 8.74546H144.356V7.84849C144.019 8.52121 143.233 8.85758 142.448 8.85758C140.988 8.85758 139.866 7.62424 139.866 5.71818C139.866 3.7 141.101 2.46667 142.56 2.46667C143.346 2.46667 143.907 2.69091 144.131 3.13939V0H146.04Z" fill="white"/>
<path d="M151.091 5.04534C151.091 4.59686 150.867 3.81201 150.081 3.81201C149.295 3.81201 148.958 4.48473 148.958 5.04534H151.091ZM148.958 6.27867C148.958 7.06352 149.744 7.39989 150.642 7.39989C151.316 7.39989 151.765 7.28776 152.326 7.17564L152.55 8.40898C151.989 8.63322 151.203 8.74534 150.418 8.74534C148.397 8.74534 147.162 7.51201 147.162 5.71807C147.162 4.14837 148.06 2.46655 150.193 2.46655C152.101 2.46655 152.887 3.92413 152.887 5.49383C152.887 5.83019 152.887 6.05443 152.775 6.27867H148.958Z" fill="white"/>
<path d="M154.01 4.59686C154.01 3.81201 154.01 3.2514 154.01 2.6908H155.581L155.693 3.47564C155.918 3.02716 156.591 2.46655 157.602 2.46655C158.836 2.46655 159.734 3.2514 159.734 5.04534V8.63322H157.826V5.26958C157.826 4.48473 157.602 3.92413 156.928 3.92413C156.367 3.92413 156.142 4.26049 155.918 4.59686C155.918 4.70898 155.806 4.93322 155.806 5.04534V8.5211H153.897V4.59686H154.01Z" fill="white"/>
<path d="M126.845 21.6394C126.283 21.8636 125.161 22.0879 124.038 22.0879C122.579 22.0879 121.457 21.7515 120.671 20.9667C119.885 20.2939 119.548 19.1727 119.548 17.9394C119.548 15.1363 121.569 13.5667 124.263 13.5667C125.385 13.5667 126.171 13.7909 126.62 14.0151L126.171 15.4727C125.722 15.2485 125.161 15.1363 124.263 15.1363C122.691 15.1363 121.457 16.0333 121.457 17.8273C121.457 19.5091 122.579 20.5182 124.038 20.5182C124.487 20.5182 124.824 20.5182 124.936 20.406V18.6121H123.702V17.1545H126.845V21.6394Z" fill="white"/>
<path d="M130.212 13.2302H128.304V21.9757H130.212V13.2302Z" fill="white"/>
<path d="M133.243 18.9485C133.243 19.9576 133.692 20.7425 134.478 20.7425C135.264 20.7425 135.713 20.0697 135.713 18.9485C135.713 18.0516 135.376 17.1546 134.478 17.1546C133.58 17.1546 133.243 18.0516 133.243 18.9485ZM137.621 18.8364C137.621 21.0788 136.049 22.0879 134.478 22.0879C132.682 22.0879 131.335 20.9667 131.335 18.9485C131.335 17.0425 132.569 15.697 134.59 15.697C136.386 15.8091 137.621 17.0425 137.621 18.8364Z" fill="white"/>
<path d="M140.652 19.3969C140.652 19.509 140.652 19.6211 140.652 19.7333C140.764 20.1817 141.213 20.6302 141.774 20.6302C142.56 20.6302 143.121 20.0696 143.121 18.9484C143.121 18.0514 142.672 17.2666 141.774 17.2666C141.325 17.2666 140.764 17.603 140.652 18.1636C140.652 18.2757 140.652 18.3878 140.652 18.4999V19.3969ZM138.743 13.2302H140.652V16.706C140.988 16.1454 141.662 15.809 142.448 15.809C143.907 15.809 144.917 17.0423 144.917 18.8363C144.917 20.9666 143.57 22.0878 142.223 22.0878C141.55 22.0878 140.876 21.8636 140.427 21.0787L140.315 21.8636H138.743C138.743 21.5272 138.743 20.7423 138.743 20.0696V13.2302Z" fill="white"/>
<path d="M149.295 19.1727C148.285 19.1727 147.499 19.397 147.499 20.0697C147.499 20.5182 147.836 20.7424 148.285 20.7424C148.734 20.7424 149.183 20.406 149.295 20.0697C149.295 19.9576 149.295 19.8454 149.295 19.7333V19.1727ZM151.203 20.5182C151.203 21.0788 151.203 21.6394 151.316 21.9757H149.632L149.519 21.4151C149.07 21.8636 148.509 22.2 147.836 22.2C146.601 22.2 145.927 21.303 145.927 20.4061C145.927 18.8364 147.387 18.0515 149.407 18.0515V17.9394C149.407 17.603 149.183 17.1545 148.285 17.1545C147.723 17.1545 147.05 17.3788 146.601 17.603L146.264 16.3697C146.713 16.1454 147.499 15.8091 148.621 15.8091C150.642 15.8091 151.203 17.0424 151.203 18.3879V20.5182Z" fill="white"/>
<path d="M154.571 13.2302H152.663V21.9757H154.571V13.2302Z" fill="white"/>
<path d="M119.885 33.0757C120.334 33.3 121.12 33.6363 122.018 33.6363C122.916 33.6363 123.365 33.3 123.365 32.7394C123.365 32.1788 122.916 31.9545 122.018 31.6182C120.671 31.1697 119.773 30.3848 119.773 29.1515C119.773 27.6939 121.008 26.6848 122.916 26.6848C123.814 26.6848 124.487 26.9091 125.049 27.1333L124.6 28.5909C124.263 28.4788 123.702 28.1424 122.916 28.1424C122.13 28.1424 121.681 28.4788 121.681 28.9272C121.681 29.4878 122.13 29.7121 123.253 30.0485C124.712 30.6091 125.385 31.3939 125.385 32.5151C125.385 33.8606 124.375 35.0939 122.018 35.0939C121.12 35.0939 120.109 34.8697 119.66 34.5333L119.885 33.0757Z" fill="white"/>
<path d="M130.212 31.2819C130.212 30.8334 129.988 30.0486 129.202 30.0486C128.416 30.0486 128.079 30.7213 128.079 31.2819H130.212ZM127.967 32.5152C127.967 33.3001 128.753 33.6365 129.651 33.6365C130.324 33.6365 130.773 33.5243 131.335 33.4122L131.559 34.6455C130.998 34.8698 130.212 34.9819 129.426 34.9819C127.406 34.9819 126.171 33.7486 126.171 31.9546C126.171 30.3849 127.069 28.7031 129.202 28.7031C131.11 28.7031 131.896 30.1607 131.896 31.7304C131.896 32.0668 131.896 32.291 131.784 32.5152H127.967Z" fill="white"/>
<path d="M133.018 30.9455C133.018 30.0485 133.018 29.4879 133.018 28.9273H134.59L134.702 30.0485C135.039 29.1515 135.713 28.8152 136.274 28.8152C136.498 28.8152 136.498 28.8152 136.723 28.8152V30.6091C136.611 30.6091 136.386 30.6091 136.274 30.6091C135.6 30.6091 135.151 30.9455 135.039 31.5061C135.039 31.6182 135.039 31.7303 135.039 31.9546V34.9819H133.131V30.9455H133.018Z" fill="white"/>
<path d="M139.305 28.9272L140.09 31.7303C140.203 32.2909 140.315 32.7394 140.427 33.1879C140.539 32.7394 140.652 32.2909 140.764 31.7303L141.55 28.9272H143.57L141.325 34.9818H139.417L137.172 28.9272H139.305Z" fill="white"/>
<path d="M144.468 28.9272H146.376V34.9817H144.468V28.9272ZM146.376 27.2454C146.376 27.806 146.04 28.1423 145.366 28.1423C144.805 28.1423 144.356 27.6938 144.356 27.2454C144.356 26.6848 144.805 26.3484 145.366 26.3484C146.04 26.3484 146.376 26.6848 146.376 27.2454Z" fill="white"/>
<path d="M152.326 34.7576C151.989 34.8697 151.316 35.094 150.642 35.094C148.734 35.094 147.499 33.8606 147.499 32.0667C147.499 30.2728 148.734 28.8152 150.979 28.8152C151.428 28.8152 151.989 28.9273 152.438 29.0394L152.101 30.3849C151.877 30.2728 151.54 30.1606 151.091 30.1606C150.081 30.1606 149.519 30.8334 149.519 31.8425C149.519 32.9637 150.305 33.5243 151.203 33.5243C151.652 33.5243 151.989 33.4122 152.326 33.3V34.7576Z" fill="white"/>
<path d="M156.928 31.2819C156.928 30.8334 156.704 30.0486 155.918 30.0486C155.132 30.0486 154.795 30.7213 154.795 31.2819H156.928ZM154.683 32.5152C154.683 33.3001 155.469 33.6365 156.367 33.6365C157.04 33.6365 157.489 33.5243 158.051 33.4122L158.275 34.6455C157.714 34.8698 156.928 34.9819 156.142 34.9819C154.122 34.9819 152.887 33.7486 152.887 31.9546C152.887 30.3849 153.785 28.7031 155.918 28.7031C157.826 28.7031 158.612 30.1607 158.612 31.7304C158.612 32.0668 158.612 32.291 158.5 32.5152H154.683Z" fill="white"/>
<path d="M159.734 33.3C160.071 33.5243 160.745 33.7485 161.306 33.7485C161.867 33.7485 162.092 33.5243 162.092 33.3C162.092 32.9637 161.867 32.8515 161.194 32.6273C159.959 32.1788 159.51 31.5061 159.51 30.8334C159.51 29.7122 160.408 28.8152 161.979 28.8152C162.653 28.8152 163.326 28.9273 163.663 29.1515L163.326 30.3849C163.102 30.2728 162.541 30.0485 161.979 30.0485C161.53 30.0485 161.306 30.2728 161.306 30.497C161.306 30.8334 161.53 30.9455 162.316 31.1697C163.439 31.5061 163.888 32.1788 163.888 32.9637C163.888 34.0849 162.99 34.8697 161.306 34.8697C160.52 34.8697 159.847 34.6455 159.398 34.4212L159.734 33.3Z" fill="white"/>
<path d="M5.8371 25.7878L0 1.45752H8.41889L14.256 25.7878H5.8371Z" fill="white"/>
<path d="M23.5729 5.4939L9.31689 36.5515H11.8987H16.3888H18.4093L23.5729 25.3394L28.7365 36.5515H30.4202L33.002 25.7878L23.5729 5.4939Z" fill="white"/>
<path d="M38.8391 36.5515L47.1458 1.45752H38.7269L30.4202 36.5515H38.8391Z" fill="#0021ED"/>
<path d="M66.5653 22.6484H71.9534V30.0484C71.2799 30.2726 69.8206 30.4969 68.1369 30.4969C61.6263 30.4969 57.0239 26.2362 57.0239 18.9484C57.0239 11.3241 62.0753 7.62412 68.6981 7.62412C72.5147 7.62412 74.872 8.29685 76.7803 9.0817L78.464 2.69079C76.7803 2.01806 73.3004 1.12109 68.6981 1.12109C57.2484 1.12109 48.7173 7.73624 48.7173 19.3969C48.7173 24.5544 50.5133 29.1514 53.6564 32.1787C56.9117 35.2059 61.514 36.8878 67.9124 36.8878C72.5147 36.8878 77.2293 35.7665 79.5866 34.8696V16.4817H66.5653V22.6484Z" fill="white"/>
<path d="M100.353 15.697C95.7509 14.0152 93.8426 13.0061 93.8426 10.7636C93.8426 8.9697 95.5264 7.4 98.8939 7.4C102.261 7.4 104.843 8.40909 106.19 9.08182L107.986 2.69091C105.854 1.68182 103.047 0.896973 99.0062 0.896973C90.8118 0.896973 85.7604 5.38182 85.7604 11.4364C85.7604 16.4818 89.577 19.7333 95.4141 21.8636C99.6797 23.3212 101.251 24.5545 101.251 26.797C101.251 29.0394 99.3429 30.6091 95.6386 30.6091C92.271 30.6091 88.9035 29.4879 86.883 28.3667L85.3114 34.8697C87.332 35.9909 91.2608 37 95.3019 37C104.956 37 109.446 31.9545 109.446 26.1242C109.446 21.1909 106.527 18.0515 100.353 15.697Z" fill="white"/>
</svg>
