<svg width="164" height="37" viewBox="0 0 164 37" fill="none" xmlns="http://www.w3.org/2000/svg">
<path d="M121.232 8.74521L119.211 0.448242H121.232L121.905 3.81188C122.13 4.82097 122.242 5.83006 122.354 6.72703C122.467 5.83006 122.691 4.82097 122.916 3.81188L123.589 0.448242H125.61L126.283 3.924C126.508 4.93309 126.62 5.83006 126.732 6.72703C126.845 5.83006 127.069 4.82097 127.181 3.81188L127.855 0.448242H129.763L127.63 8.74521H125.722L125.049 5.15733C124.936 4.37248 124.712 3.58764 124.6 2.57855C124.487 3.47551 124.263 4.26036 124.151 5.15733L123.365 8.74521H121.232Z" fill="#1C1C1C"/>
<path d="M133.468 5.94255C132.457 5.94255 131.672 6.1668 131.672 6.83952C131.672 7.28801 132.008 7.51225 132.457 7.51225C132.906 7.51225 133.355 7.17589 133.468 6.83952C133.468 6.7274 133.468 6.61528 133.468 6.50316V5.94255ZM135.264 7.28801C135.264 7.84862 135.264 8.40922 135.376 8.74558H133.692L133.58 8.18498C133.131 8.63346 132.57 8.96983 131.896 8.96983C130.661 8.96983 129.988 8.07286 129.988 7.17589C129.988 5.60619 131.447 4.82134 133.468 4.82134V4.5971C133.468 4.26074 133.243 3.81225 132.345 3.81225C131.784 3.81225 131.11 4.03649 130.661 4.26074L130.325 3.0274C130.774 2.80316 131.559 2.4668 132.682 2.4668C134.702 2.4668 135.264 3.70013 135.264 5.04558V7.28801Z" fill="#1C1C1C"/>
<path d="M138.631 0H136.723V8.74545H138.631V0Z" fill="#1C1C1C"/>
<path d="M144.131 5.2697C144.131 5.15758 144.131 5.04545 144.131 4.93333C144.019 4.48485 143.57 4.03636 143.009 4.03636C142.111 4.03636 141.662 4.82121 141.662 5.71818C141.662 6.72727 142.111 7.4 142.897 7.4C143.458 7.4 143.907 7.06364 144.019 6.50303C144.019 6.39091 144.019 6.16667 144.019 6.05455V5.2697H144.131ZM146.04 0V6.95152C146.04 7.62424 146.04 8.29697 146.04 8.74546H144.356V7.84849C144.019 8.52121 143.233 8.85758 142.448 8.85758C140.988 8.85758 139.866 7.62424 139.866 5.71818C139.866 3.7 141.1 2.46667 142.56 2.46667C143.346 2.46667 143.907 2.69091 144.131 3.13939V0H146.04Z" fill="#1C1C1C"/>
<path d="M151.091 5.04558C151.091 4.5971 150.866 3.81225 150.081 3.81225C149.295 3.81225 148.958 4.48498 148.958 5.04558H151.091ZM148.958 6.27892C148.958 7.06377 149.744 7.40013 150.642 7.40013C151.315 7.40013 151.764 7.28801 152.326 7.17589L152.55 8.40922C151.989 8.63346 151.203 8.74558 150.417 8.74558C148.397 8.74558 147.162 7.51225 147.162 5.71831C147.162 4.14861 148.06 2.4668 150.193 2.4668C152.101 2.4668 152.887 3.92437 152.887 5.49407C152.887 5.83043 152.887 6.05468 152.775 6.27892H148.958Z" fill="#1C1C1C"/>
<path d="M154.01 4.5971C154.01 3.81225 154.01 3.25165 154.01 2.69104H155.581L155.693 3.47589C155.918 3.0274 156.591 2.4668 157.602 2.4668C158.837 2.4668 159.735 3.25165 159.735 5.04558V8.63346H157.826V5.26983C157.826 4.48498 157.602 3.92437 156.928 3.92437C156.367 3.92437 156.142 4.26074 155.918 4.5971C155.918 4.70922 155.806 4.93346 155.806 5.04558V8.52134H153.897V4.5971H154.01Z" fill="#1C1C1C"/>
<path d="M126.845 21.6396C126.283 21.8639 125.161 22.0881 124.038 22.0881C122.579 22.0881 121.457 21.7517 120.671 20.9669C119.885 20.2942 119.548 19.173 119.548 17.9396C119.548 15.1366 121.569 13.5669 124.263 13.5669C125.385 13.5669 126.171 13.7911 126.62 14.0154L126.171 15.473C125.722 15.2487 125.161 15.1366 124.263 15.1366C122.691 15.1366 121.457 16.0336 121.457 17.8275C121.457 19.5093 122.579 20.5184 124.038 20.5184C124.487 20.5184 124.824 20.5184 124.936 20.4063V18.6123H123.702V17.1548H126.845V21.6396Z" fill="#1C1C1C"/>
<path d="M130.212 13.2305H128.304V21.9759H130.212V13.2305Z" fill="#1C1C1C"/>
<path d="M133.243 18.9483C133.243 19.9574 133.692 20.7422 134.478 20.7422C135.264 20.7422 135.713 20.0695 135.713 18.9483C135.713 18.0513 135.376 17.1544 134.478 17.1544C133.58 17.1544 133.243 18.0513 133.243 18.9483ZM137.621 18.8362C137.621 21.0786 136.049 22.0877 134.478 22.0877C132.682 22.0877 131.335 20.9665 131.335 18.9483C131.335 17.0422 132.569 15.6968 134.59 15.6968C136.386 15.8089 137.621 17.0422 137.621 18.8362Z" fill="#1C1C1C"/>
<path d="M140.652 19.3971C140.652 19.5093 140.652 19.6214 140.652 19.7335C140.764 20.182 141.213 20.6305 141.774 20.6305C142.56 20.6305 143.121 20.0699 143.121 18.9486C143.121 18.0517 142.672 17.2668 141.774 17.2668C141.325 17.2668 140.764 17.6032 140.652 18.1638C140.652 18.2759 140.652 18.388 140.652 18.5002V19.3971ZM138.743 13.2305H140.652V16.7062C140.988 16.1456 141.662 15.8093 142.448 15.8093C143.907 15.8093 144.917 17.0426 144.917 18.8365C144.917 20.9668 143.57 22.088 142.223 22.088C141.55 22.088 140.876 21.8638 140.427 21.079L140.315 21.8638H138.743C138.743 21.5274 138.743 20.7426 138.743 20.0699V13.2305Z" fill="#1C1C1C"/>
<path d="M149.295 19.1727C148.285 19.1727 147.499 19.397 147.499 20.0697C147.499 20.5182 147.836 20.7424 148.285 20.7424C148.734 20.7424 149.183 20.406 149.295 20.0697C149.295 19.9576 149.295 19.8454 149.295 19.7333V19.1727ZM151.203 20.5182C151.203 21.0788 151.203 21.6394 151.316 21.9757H149.632L149.52 21.4151C149.071 21.8636 148.509 22.2 147.836 22.2C146.601 22.2 145.927 21.303 145.927 20.4061C145.927 18.8364 147.387 18.0515 149.407 18.0515V17.9394C149.407 17.603 149.183 17.1545 148.285 17.1545C147.724 17.1545 147.05 17.3788 146.601 17.603L146.264 16.3697C146.713 16.1454 147.499 15.8091 148.622 15.8091C150.642 15.8091 151.203 17.0424 151.203 18.3879V20.5182Z" fill="#1C1C1C"/>
<path d="M154.571 13.2305H152.663V21.9759H154.571V13.2305Z" fill="#1C1C1C"/>
<path d="M119.885 33.076C120.334 33.3002 121.12 33.6366 122.018 33.6366C122.916 33.6366 123.365 33.3002 123.365 32.7396C123.365 32.179 122.916 31.9548 122.018 31.6184C120.671 31.1699 119.773 30.3851 119.773 29.1517C119.773 27.6942 121.007 26.6851 122.916 26.6851C123.814 26.6851 124.487 26.9093 125.048 27.1335L124.599 28.5911C124.263 28.479 123.701 28.1426 122.916 28.1426C122.13 28.1426 121.681 28.479 121.681 28.9275C121.681 29.4881 122.13 29.7123 123.252 30.0487C124.712 30.6093 125.385 31.3942 125.385 32.5154C125.385 33.8608 124.375 35.0942 122.018 35.0942C121.12 35.0942 120.109 34.8699 119.66 34.5335L119.885 33.076Z" fill="#1C1C1C"/>
<path d="M130.212 31.2819C130.212 30.8334 129.988 30.0486 129.202 30.0486C128.416 30.0486 128.079 30.7213 128.079 31.2819H130.212ZM127.967 32.5152C127.967 33.3001 128.753 33.6365 129.651 33.6365C130.324 33.6365 130.773 33.5243 131.335 33.4122L131.559 34.6455C130.998 34.8698 130.212 34.9819 129.426 34.9819C127.406 34.9819 126.171 33.7486 126.171 31.9546C126.171 30.3849 127.069 28.7031 129.202 28.7031C131.11 28.7031 131.896 30.1607 131.896 31.7304C131.896 32.0668 131.896 32.291 131.784 32.5152H127.967Z" fill="#1C1C1C"/>
<path d="M133.019 30.9452C133.019 30.0483 133.019 29.4877 133.019 28.9271H134.59L134.702 30.0483C135.039 29.1513 135.713 28.8149 136.274 28.8149C136.498 28.8149 136.498 28.8149 136.723 28.8149V30.6089C136.611 30.6089 136.386 30.6089 136.274 30.6089C135.6 30.6089 135.151 30.9452 135.039 31.5059C135.039 31.618 135.039 31.7301 135.039 31.9543V34.9816H133.131V30.9452H133.019Z" fill="#1C1C1C"/>
<path d="M139.305 28.9272L140.09 31.7303C140.203 32.2909 140.315 32.7394 140.427 33.1879C140.539 32.7394 140.652 32.2909 140.764 31.7303L141.55 28.9272H143.57L141.325 34.9818H139.417L137.172 28.9272H139.305Z" fill="#1C1C1C"/>
<path d="M144.468 28.9274H146.376V34.982H144.468V28.9274ZM146.376 27.2456C146.376 27.8062 146.04 28.1426 145.366 28.1426C144.805 28.1426 144.356 27.6941 144.356 27.2456C144.356 26.685 144.805 26.3486 145.366 26.3486C146.04 26.3486 146.376 26.685 146.376 27.2456Z" fill="#1C1C1C"/>
<path d="M152.326 34.7574C151.989 34.8695 151.316 35.0937 150.642 35.0937C148.734 35.0937 147.499 33.8604 147.499 32.0665C147.499 30.2725 148.734 28.8149 150.979 28.8149C151.428 28.8149 151.989 28.9271 152.438 29.0392L152.101 30.3846C151.877 30.2725 151.54 30.1604 151.091 30.1604C150.081 30.1604 149.52 30.8331 149.52 31.8422C149.52 32.9634 150.305 33.524 151.203 33.524C151.652 33.524 151.989 33.4119 152.326 33.2998V34.7574Z" fill="#1C1C1C"/>
<path d="M156.928 31.2819C156.928 30.8334 156.704 30.0486 155.918 30.0486C155.132 30.0486 154.795 30.7213 154.795 31.2819H156.928ZM154.683 32.5152C154.683 33.3001 155.469 33.6365 156.367 33.6365C157.04 33.6365 157.489 33.5243 158.051 33.4122L158.275 34.6455C157.714 34.8698 156.928 34.9819 156.142 34.9819C154.122 34.9819 152.887 33.7486 152.887 31.9546C152.887 30.3849 153.785 28.7031 155.918 28.7031C157.826 28.7031 158.612 30.1607 158.612 31.7304C158.612 32.0668 158.612 32.291 158.5 32.5152H154.683Z" fill="#1C1C1C"/>
<path d="M159.734 33.2998C160.071 33.524 160.745 33.7483 161.306 33.7483C161.867 33.7483 162.092 33.524 162.092 33.2998C162.092 32.9634 161.867 32.8513 161.194 32.6271C159.959 32.1786 159.51 31.5059 159.51 30.8331C159.51 29.7119 160.408 28.8149 161.979 28.8149C162.653 28.8149 163.327 28.9271 163.663 29.1513L163.327 30.3846C163.102 30.2725 162.541 30.0483 161.979 30.0483C161.53 30.0483 161.306 30.2725 161.306 30.4968C161.306 30.8331 161.53 30.9452 162.316 31.1695C163.439 31.5058 163.888 32.1786 163.888 32.9634C163.888 34.0846 162.99 34.8695 161.306 34.8695C160.52 34.8695 159.847 34.6452 159.398 34.421L159.734 33.2998Z" fill="#1C1C1C"/>
<path d="M5.8371 25.7878L0 1.45752H8.41889L14.256 25.7878H5.8371Z" fill="#1C1C1C"/>
<path d="M23.5729 5.49414L9.31689 36.5517H11.8987H16.3888H18.4093L23.5729 25.3396L28.7365 36.5517H30.4202L33.002 25.7881L23.5729 5.49414Z" fill="#1C1C1C"/>
<path d="M38.8391 36.5515L47.1457 1.45752H38.7268L30.4202 36.5515H38.8391Z" fill="#0021ED"/>
<path d="M66.5653 22.6484H71.9534V30.0484C71.2799 30.2726 69.8206 30.4969 68.1369 30.4969C61.6263 30.4969 57.0239 26.2362 57.0239 18.9484C57.0239 11.3241 62.0753 7.62412 68.6981 7.62412C72.5147 7.62412 74.872 8.29685 76.7803 9.0817L78.464 2.69079C76.7803 2.01806 73.3004 1.12109 68.6981 1.12109C57.2484 1.12109 48.7173 7.73624 48.7173 19.3969C48.7173 24.5544 50.5133 29.1514 53.6564 32.1787C56.9117 35.2059 61.514 36.8878 67.9124 36.8878C72.5147 36.8878 77.2293 35.7665 79.5866 34.8696V16.4817H66.5653V22.6484Z" fill="#1C1C1C"/>
<path d="M100.353 15.697C95.751 14.0152 93.8427 13.0061 93.8427 10.7636C93.8427 8.9697 95.5264 7.4 98.894 7.4C102.262 7.4 104.843 8.40909 106.19 9.08182L107.986 2.69091C105.854 1.68182 103.047 0.896973 99.0063 0.896973C90.8119 0.896973 85.7605 5.38182 85.7605 11.4364C85.7605 16.4818 89.5771 19.7333 95.4142 21.8636C99.6798 23.3212 101.251 24.5545 101.251 26.797C101.251 29.0394 99.343 30.6091 95.6387 30.6091C92.2711 30.6091 88.9036 29.4879 86.8831 28.3667L85.3115 34.8697C87.3321 35.9909 91.2609 37 95.3019 37C104.956 37 109.446 31.9545 109.446 26.1242C109.446 21.1909 106.527 18.0515 100.353 15.697Z" fill="#1C1C1C"/>
</svg>
